<svg xmlns="http://www.w3.org/2000/svg" viewBox="0 0 196 196"><defs><style>.cls-1{fill:#003466;}.cls-2{fill:#e99321;}.cls-3{fill:#414042;}.cls-4{fill:#fff;}</style></defs><title>Catálogo</title><g id="Capa_2" data-name="Capa 2"><g id="Capa_1-2" data-name="Capa 1"><rect class="cls-1" width="196" height="65.33"/><rect class="cls-2" y="65.33" width="196" height="65.33"/><rect class="cls-3" y="130.67" width="196" height="65.33"/><path class="cls-4" d="M42,125.35,42,71.11l21.89,0,.06,54.24ZM42.87,72l.05,52.43,20.08,0L62.94,72Z"/><path class="cls-4" d="M48.47,122.84a3.34,3.34,0,0,1-3.33-3.32h0a3.34,3.34,0,0,1,3.32-3.33h0a3.33,3.33,0,1,1,0,6.65Zm-2.42-3.32a2.43,2.43,0,0,0,2.42,2.42h0a2.47,2.47,0,0,0,1.71-.71,2.44,2.44,0,0,0,.7-1.71,2.41,2.41,0,0,0-2.41-2.42h0a2.42,2.42,0,0,0-2.41,2.42Z"/><path class="cls-4" d="M47.62,114.91a2.49,2.49,0,0,1-2.48-2.49,2.43,2.43,0,0,1,.72-1.76,2.48,2.48,0,0,1,1.76-.73h0a2.49,2.49,0,0,1,0,5Zm0-4.07h0A1.57,1.57,0,0,0,46,112.42,1.59,1.59,0,0,0,47.62,114h0a1.58,1.58,0,0,0,1.11-2.7A1.56,1.56,0,0,0,47.62,110.84Z"/><path class="cls-4" d="M47.1,108.54a1.94,1.94,0,0,1-1.39-.57,1.91,1.91,0,0,1-.58-1.39,2,2,0,0,1,2-2h0a2,2,0,0,1,0,3.93Zm0-3h0a1.06,1.06,0,0,0,0,2.12h0a1.07,1.07,0,0,0,1.06-1.06,1,1,0,0,0-.32-.75A1,1,0,0,0,47.1,105.52Z"/><path class="cls-4" d="M46.67,103.74a1.55,1.55,0,0,1-1.55-1.54h0a1.51,1.51,0,0,1,.46-1.1,1.55,1.55,0,0,1,1.09-.46h0a1.55,1.55,0,1,1,0,3.1Zm0-2.19h0a.65.65,0,0,0-.64.64h0a.65.65,0,0,0,.64.65h0a.64.64,0,0,0,.46-1.1A.66.66,0,0,0,46.67,101.55Z"/><path class="cls-4" d="M46.46,99.46a1.34,1.34,0,0,1-1-2.28,1.31,1.31,0,0,1,1-.4h0a1.33,1.33,0,0,1,1.34,1.34,1.34,1.34,0,0,1-1.34,1.34ZM46,98.12a.44.44,0,0,0,.43.44h0a.44.44,0,0,0,.31-.13.43.43,0,0,0,.12-.31.42.42,0,0,0-.12-.3.46.46,0,0,0-.31-.13h0A.43.43,0,0,0,46,98.12Z"/><path class="cls-4" d="M46.14,95.19a1,1,0,0,1-1-1,1,1,0,0,1,.3-.73,1,1,0,0,1,.72-.3h0a1,1,0,0,1,.73.3,1,1,0,0,1,0,1.45,1,1,0,0,1-.73.31Zm0-1.15h0a.12.12,0,0,0-.08,0,.13.13,0,0,0,0,.09.14.14,0,0,0,.12.12h0a.13.13,0,0,0,.09,0,.12.12,0,0,0,0-.08.11.11,0,0,0-.12-.12Z"/><path class="cls-4" d="M57.52,99.77a3.33,3.33,0,1,1,0-6.65h0a3.33,3.33,0,0,1,3.33,3.32,3.34,3.34,0,0,1-3.32,3.33Zm0-5.75h0a2.47,2.47,0,0,0-1.71.71,2.44,2.44,0,0,0-.7,1.71,2.42,2.42,0,0,0,2.41,2.42h0a2.42,2.42,0,0,0,2.41-2.42,2.39,2.39,0,0,0-.71-1.71A2.43,2.43,0,0,0,57.52,94Z"/><path class="cls-4" d="M58.37,106a2.49,2.49,0,1,1,0-5h0a2.49,2.49,0,0,1,0,5Zm0-4.07h0a1.53,1.53,0,0,0-1.11.46,1.58,1.58,0,0,0,1.12,2.7h0A1.58,1.58,0,0,0,60,103.54,1.59,1.59,0,0,0,58.37,102Z"/><path class="cls-4" d="M58.89,111.35a2,2,0,0,1,0-3.93h0a2,2,0,1,1,0,3.93Zm0-3h0a1.06,1.06,0,1,0,0,2.12h0a1.06,1.06,0,0,0,0-2.12Z"/><path class="cls-4" d="M59.32,115.32a1.55,1.55,0,1,1,0-3.1h0a1.55,1.55,0,1,1,0,3.1Zm0-2.2h0a.65.65,0,0,0,0,1.29h0a.65.65,0,0,0,0-1.29Z"/><path class="cls-4" d="M59.53,119.18a1.34,1.34,0,1,1,0-2.68h0a1.31,1.31,0,0,1,.95.39,1.34,1.34,0,0,1,0,1.89,1.31,1.31,0,0,1-.95.4Zm0-1.78h0a.44.44,0,0,0-.43.44.43.43,0,0,0,.43.43h0a.46.46,0,0,0,.31-.13.42.42,0,0,0,.12-.3A.44.44,0,0,0,59.53,117.4Z"/><path class="cls-4" d="M59.85,122.83a1,1,0,0,1-.73-1.75,1,1,0,0,1,.73-.31h0a1,1,0,0,1,0,2.06Zm0-1.15h0a.13.13,0,0,0-.09,0,.12.12,0,0,0,0,.08.11.11,0,0,0,.12.12h0a.12.12,0,0,0,.12-.12.14.14,0,0,0-.12-.12Z"/><path class="cls-4" d="M52.8,80.15a3.33,3.33,0,0,1-3.32-3.32A3.33,3.33,0,0,1,52.8,73.5h0a3.33,3.33,0,0,1,3.33,3.32,3.33,3.33,0,0,1-3.32,3.33Zm0-5.74h0a2.41,2.41,0,0,0-2.41,2.42,2.42,2.42,0,0,0,2.41,2.41h0a2.42,2.42,0,0,0,2.41-2.42,2.41,2.41,0,0,0-2.42-2.41Z"/><path class="cls-4" d="M52.81,89.33a3.32,3.32,0,1,1,0-6.64h0A3.33,3.33,0,0,1,56.14,86h0a3.32,3.32,0,0,1-3.32,3.32Zm0-5.74h0A2.41,2.41,0,0,0,50.4,86a2.42,2.42,0,0,0,2.41,2.42h0A2.42,2.42,0,0,0,55.23,86h0a2.42,2.42,0,0,0-2.42-2.42Z"/><path class="cls-4" d="M75.42,125.32l-.06-54.25,21.89,0,.06,54.24ZM76.27,72l.06,52.43,20.07,0L96.34,72Z"/><path class="cls-4" d="M86.21,80.11a3.29,3.29,0,0,1-2.35-1,3.34,3.34,0,0,1-1-2.35,3.35,3.35,0,0,1,3.32-3.33h0a3.33,3.33,0,1,1,0,6.65Zm0-5.74h0A2.42,2.42,0,0,0,84.5,78.5a2.42,2.42,0,0,0,1.71.7h0a2.42,2.42,0,0,0,2.42-2.42,2.45,2.45,0,0,0-.71-1.7A2.41,2.41,0,0,0,86.21,74.37Z"/><path class="cls-4" d="M86.22,89.3a3.33,3.33,0,0,1,0-6.65h0A3.31,3.31,0,0,1,89.54,86h0a3.33,3.33,0,0,1-3.32,3.33Zm0-5.74h0A2.42,2.42,0,0,0,83.8,86a2.42,2.42,0,0,0,2.42,2.41h0A2.42,2.42,0,0,0,88.64,86h0a2.47,2.47,0,0,0-.71-1.71A2.44,2.44,0,0,0,86.22,83.56Z"/><path class="cls-4" d="M107.86,92.63a1.91,1.91,0,0,1-1.91-1.9V83.67a1.91,1.91,0,0,1,1.91-1.91,1,1,0,0,0,1-1V74.69a1.91,1.91,0,0,1,1.91-1.91h10a1.91,1.91,0,0,1,1.91,1.9v6.07a1,1,0,0,0,.3.71,1,1,0,0,0,.7.29h0a1.9,1.9,0,0,1,1.9,1.9v7.07a1.91,1.91,0,0,1-1.9,1.91ZM120.8,73.68h-10a1,1,0,0,0-1,1v6.06a1.89,1.89,0,0,1-1.9,1.91,1,1,0,0,0-.71.3,1,1,0,0,0-.29.7v7.07a1,1,0,0,0,1,1h0l15.87,0a1,1,0,0,0,1-1V83.64a1,1,0,0,0-1-1h0a1.91,1.91,0,0,1-1.9-1.91V74.68a1,1,0,0,0-1-1Z"/><path class="cls-4" d="M113.57,73.68V69.37H118v4.31Zm.91-3.4v2.5h2.58v-2.5Z"/><rect class="cls-4" x="113.94" y="70.45" width="3.66" height="0.91" transform="translate(-0.08 0.14) rotate(-0.07)"/><rect class="cls-4" x="113.94" y="70.45" width="3.66" height="0.91" transform="translate(-0.08 0.14) rotate(-0.07)"/><rect class="cls-4" x="113.94" y="71.61" width="3.66" height="0.91" transform="translate(-0.08 0.14) rotate(-0.07)"/><path class="cls-4" d="M115.79,86.89a1.41,1.41,0,0,1,0-2.82h0a1.41,1.41,0,0,1,1.4,1.41h0a1.4,1.4,0,0,1-1.4,1.41Zm0-1.91h0a.51.51,0,0,0-.51.5.5.5,0,0,0,.51.5h0a.5.5,0,0,0,.5-.5h0A.51.51,0,0,0,115.79,85Z"/><path class="cls-4" d="M111.46,123.37l-3.07-3.78V107l14.86,0,0,12.59L120,123.36Zm-2.16-4.1,2.59,3.19h7.72l2.74-3.21V107.9l-13,0Z"/><path class="cls-4" d="M111.31,126.86v-4.4h9v4.4Zm.9-3.49V126h7.24v-2.58Z"/><path class="cls-4" d="M109.17,107.92v-10h13.25v10Zm.89-9.14V107h11.44V98.77Z"/><rect class="cls-4" x="109.67" y="99.16" width="12.32" height="0.91" transform="translate(-0.12 0.14) rotate(-0.07)"/><rect class="cls-4" x="109.67" y="100.49" width="12.32" height="0.91" transform="translate(-0.12 0.14) rotate(-0.07)"/><rect class="cls-4" x="109.67" y="101.82" width="12.32" height="0.91" transform="translate(-0.12 0.14) rotate(-0.07)"/><rect class="cls-4" x="109.68" y="103.15" width="12.32" height="0.91" transform="translate(-0.12 0.14) rotate(-0.07)"/><rect class="cls-4" x="109.68" y="104.48" width="12.32" height="0.91" transform="translate(-0.12 0.14) rotate(-0.07)"/><rect class="cls-4" x="109.68" y="105.81" width="12.32" height="0.91" transform="translate(-0.12 0.14) rotate(-0.07)"/><path class="cls-4" d="M75.42,125.32l-.06-54.25,21.89,0,.06,54.24ZM76.27,72l.06,52.43,20.07,0L96.34,72Z"/><path class="cls-4" d="M86.21,80.11a3.29,3.29,0,0,1-2.35-1,3.34,3.34,0,0,1-1-2.35,3.35,3.35,0,0,1,3.32-3.33h0a3.33,3.33,0,1,1,0,6.65Zm0-5.74h0A2.42,2.42,0,0,0,84.5,78.5a2.42,2.42,0,0,0,1.71.7h0a2.42,2.42,0,0,0,2.42-2.42,2.45,2.45,0,0,0-.71-1.7A2.41,2.41,0,0,0,86.21,74.37Z"/><path class="cls-4" d="M86.22,89.3a3.33,3.33,0,0,1,0-6.65h0A3.31,3.31,0,0,1,89.54,86h0a3.33,3.33,0,0,1-3.32,3.33Zm0-5.74h0A2.42,2.42,0,0,0,83.8,86a2.42,2.42,0,0,0,2.42,2.41h0A2.42,2.42,0,0,0,88.64,86h0a2.47,2.47,0,0,0-.71-1.71A2.44,2.44,0,0,0,86.22,83.56Z"/><path class="cls-4" d="M136.59,85.41V81l-3.14-11.6,20.59,0-3.11,11.6v4.46Zm-2-15.15,2.86,10.57V84.5l12.53,0V80.81l0-.06,2.82-10.51Z"/><path class="cls-4" d="M137.25,119.85l0-35.35,13.09,0,0,35.36h-2.7l-.13-24.67-7.58,0,.13,24.64Zm.87-34.45,0,33.54h1L139,94.31l9.39,0,.13,24.67h.89l0-33.54Z"/><path class="cls-4" d="M139.21,128.67,139,94.31l9.39,0,.18,34.36Zm.73-33.46.17,32.55,7.58,0-.17-32.55Z"/><path class="cls-4" d="M143.7,100.22a1.81,1.81,0,0,1-1.31-.55,1.9,1.9,0,0,1-.55-1.32,1.87,1.87,0,0,1,1.85-1.88h0a1.84,1.84,0,0,1,1.85,1.86,1.86,1.86,0,0,1-1.84,1.89Zm0-2.85h0a1,1,0,0,0-.94,1A.92.92,0,0,0,143,99a.91.91,0,0,0,.66.28h0a.93.93,0,0,0,.67-.28,1,1,0,0,0,.28-.69,1,1,0,0,0-.29-.69A.92.92,0,0,0,143.7,97.37Z"/><path class="cls-4" d="M143.72,104.77a1.82,1.82,0,0,1-1.3-.54,1.88,1.88,0,0,1,1.29-3.21h0a1.88,1.88,0,0,1,0,3.75Zm0-2.84h0a1,1,0,0,0-.94,1,1,1,0,0,0,.28.69.92.92,0,0,0,.66.28h0a1,1,0,0,0,0-1.94Z"/><path class="cls-4" d="M74.93,180.84H27.41V148.27H74.93Zm-46.61-.9H74V149.18H28.32Z"/><path class="cls-4" d="M52.63,164.79H33.43v-8.72h19.2Zm-18.29-.91H51.72V157H34.34Z"/><path class="cls-4" d="M61.33,158.77H57.52V155h3.81Zm-2.9-.91h2v-2h-2Z"/><path class="cls-4" d="M66,158.77H62.2V155H66Zm-2.9-.91h2v-2h-2Z"/><path class="cls-4" d="M70.69,158.77h-3.8V155h3.8Zm-2.9-.91h2v-2h-2Z"/><path class="cls-4" d="M61.33,163.67H57.52v-3.8h3.81Zm-2.9-.91h2v-2h-2Z"/><path class="cls-4" d="M66,163.67H62.2v-3.8H66Zm-2.9-.91h2v-2h-2Z"/><path class="cls-4" d="M70.69,163.67h-3.8v-3.8h3.8Zm-2.9-.91h2v-2h-2Z"/><path class="cls-4" d="M61.33,168.58H57.52v-3.81h3.81Zm-2.9-.91h2v-2h-2Z"/><path class="cls-4" d="M66,168.58H62.2v-3.81H66Zm-2.9-.91h2v-2h-2Z"/><path class="cls-4" d="M70.69,168.58h-3.8v-3.81h3.8Zm-2.9-.91h2v-2h-2Z"/><path class="cls-4" d="M61.33,173.48H57.52v-3.8h3.81Zm-2.9-.9h2v-2h-2Z"/><path class="cls-4" d="M66,173.48H62.2v-3.8H66Zm-2.9-.9h2v-2h-2Z"/><path class="cls-4" d="M70.69,173.48h-3.8v-3.8h3.8Zm-2.9-.9h2v-2h-2Z"/><rect class="cls-4" x="27.64" y="176.15" width="47.28" height="0.91"/><circle class="cls-4" cx="30.71" cy="151.29" r="0.78"/><circle class="cls-4" cx="71.63" cy="151.4" r="0.78"/><circle class="cls-4" cx="30.71" cy="178.5" r="0.78"/><circle class="cls-4" cx="71.63" cy="178.61" r="0.78"/><path class="cls-4" d="M112.51,183.63H88.26V158.52h24.25Zm-23.35-.91H111.6V159.43H89.16Z"/><path class="cls-4" d="M112.51,183.63H88.26V158.52h24.25Zm-23.35-.91H111.6V159.43H89.16Z"/><path class="cls-4" d="M109.78,180.91H91V161.24h18.8ZM91.88,180h17V162.15h-17Z"/><path class="cls-4" d="M105.56,159.43H95.2V149h10.36Zm-9.45-.91h8.54v-8.64H96.11Z"/><polygon class="cls-4" points="120.97 154.05 100.38 142.17 79.79 154.05 79.34 153.26 100.38 141.12 100.61 141.25 121.42 153.26 120.97 154.05"/><rect class="cls-4" x="86.78" y="148.98" width="27.2" height="0.91"/><path class="cls-4" d="M100.38,171.23a1.64,1.64,0,1,1,1.63-1.64A1.64,1.64,0,0,1,100.38,171.23Zm0-2.36a.73.73,0,0,0-.73.72.73.73,0,0,0,1.46,0A.73.73,0,0,0,100.38,168.87Z"/><path class="cls-4" d="M161.56,181.06H132.77a7.05,7.05,0,0,1-7-7V154.8a7.05,7.05,0,0,1,7-7h28.79a7,7,0,0,1,7,7V174A7,7,0,0,1,161.56,181.06Zm-28.79-32.39a6.14,6.14,0,0,0-6.13,6.13V174a6.14,6.14,0,0,0,6.13,6.13h28.79a6.13,6.13,0,0,0,6.12-6.13V154.8a6.13,6.13,0,0,0-6.12-6.13Z"/><path class="cls-4" d="M158.44,170.33H135.29v-15h23.15Zm-22.24-.91h21.34V156.28H136.2Z"/><path class="cls-4" d="M158.25,175.89h-5.2v-4h5.2ZM154,175h3.38v-2.21H154Z"/><path class="cls-4" d="M157.37,175.11h-3.44v-2.47h3.44Zm-2.54-.91h1.63v-.65h-1.63Z"/><path class="cls-4" d="M138.44,175.11H135.1v-2.86h3.34ZM136,174.2h1.53v-1H136Z"/><path class="cls-4" d="M146.48,175.11a1.34,1.34,0,1,1,1.33-1.33A1.33,1.33,0,0,1,146.48,175.11Zm0-1.76a.43.43,0,1,0,0,.85.43.43,0,0,0,0-.85Z"/><path class="cls-4" d="M162.07,183.2h-1.69a1,1,0,0,1-1-1,.09.09,0,0,0-.08-.08h-.49a.08.08,0,0,0-.08.08,1,1,0,0,1-1,1h-1.57a1,1,0,0,1-1-1v-1.07a1,1,0,0,1,1-1h6.53a1,1,0,0,1,.86.5,1,1,0,0,1,0,1l-.63,1.08A1,1,0,0,1,162.07,183.2Zm-3.25-2h.49a1,1,0,0,1,1,1,.08.08,0,0,0,.08.09h1.69a.08.08,0,0,0,.07,0l.64-1.08a.11.11,0,0,0,0-.08.08.08,0,0,0-.07,0h-6.53a.08.08,0,0,0-.08.08v1.07a.09.09,0,0,0,.08.09h1.57a.09.09,0,0,0,.08-.09A1,1,0,0,1,158.82,181.22Z"/><path class="cls-4" d="M138.14,183.2h-1.56a1,1,0,0,1-1-1,.09.09,0,0,0-.09-.08H135a.09.09,0,0,0-.09.08,1,1,0,0,1-1,1h-1.69a1,1,0,0,1-.85-.48l-.64-1.08a1,1,0,0,1,0-1,1,1,0,0,1,.86-.5h6.53a1,1,0,0,1,1,1v1.07A1,1,0,0,1,138.14,183.2Zm-3.12-2h.48a1,1,0,0,1,1,1,.09.09,0,0,0,.09.09h1.56a.09.09,0,0,0,.08-.09v-1.07a.08.08,0,0,0-.08-.08h-6.53a.08.08,0,0,0-.07,0,.11.11,0,0,0,0,.08h0l.64,1.08a.08.08,0,0,0,.07,0h1.69a.09.09,0,0,0,.09-.09A1,1,0,0,1,135,181.22Z"/><path class="cls-4" d="M142.64,148.67h-9.79v-2.76h9.79Zm-8.88-.91h8v-.94h-8Z"/><path class="cls-4" d="M162.45,148.67h-9.78v-2.76h9.78Zm-8.87-.91h8v-.94h-8Z"/><path class="cls-4" d="M145.76,162.23h-7.83V158h7.83Zm-6.93-.91h6v-2.41h-6Z"/><path class="cls-4" d="M155.61,162.23h-7.83V158h7.83Zm-6.92-.91h6v-2.41h-6Z"/><path class="cls-4" d="M145.76,167.5h-7.83v-4.23h7.83Zm-6.93-.91h6v-2.41h-6Z"/><path class="cls-4" d="M155.61,167.5h-7.83v-4.23h7.83Zm-6.92-.91h6v-2.41h-6Z"/><rect class="cls-4" x="155.19" y="173.09" width="0.91" height="1.57"/><path class="cls-4" d="M108.3,45h-2.69A2,2,0,0,0,107.14,44H89.33A2.08,2.08,0,0,0,91.07,45H108.3Z"/><path class="cls-4" d="M111.42,44.68l-2.44-.6v-30a3.53,3.53,0,0,0-3.52-3.52H91a3.52,3.52,0,0,0-3.51,3.52v30l-2.42.57A1.45,1.45,0,0,0,84,46.1v8.16h28.54V46.09A1.45,1.45,0,0,0,111.42,44.68Zm0,8.67H85.06V46.1a.37.37,0,0,1,.29-.36L88.29,45h2.78A2.08,2.08,0,0,1,89.33,44h-.72V14.09A2.43,2.43,0,0,1,91,11.66h14.43a2.43,2.43,0,0,1,2.43,2.43V44h-.75A2,2,0,0,1,105.61,45h2.76l2.79.7a.38.38,0,0,1,.28.36Z"/><path class="cls-4" d="M104.87,28.35h-13V18.17a2.93,2.93,0,0,1,2.92-2.93H102a2.93,2.93,0,0,1,2.92,2.93ZM93,27.26h10.83V18.17A1.83,1.83,0,0,0,102,16.33H94.79A1.84,1.84,0,0,0,93,18.17Z"/><path class="cls-4" d="M106,34.05H90.42v-4a2.82,2.82,0,0,1,2.82-2.82h9.94A2.82,2.82,0,0,1,106,30.08ZM91.51,33h13.4V30.08a1.72,1.72,0,0,0-1.73-1.73H93.24a1.72,1.72,0,0,0-1.73,1.73Z"/><path class="cls-4" d="M106,33.5a3,3,0,0,0-1.7-.54H92.14a2.94,2.94,0,0,0-1.72.55A3.37,3.37,0,0,0,89,36.26V42.8a2.35,2.35,0,0,0,.3,1.15A2.08,2.08,0,0,0,91.07,45h14.54A2,2,0,0,0,107.14,44a2.26,2.26,0,0,0,.27-1.07V36.26A3.35,3.35,0,0,0,106,33.5ZM91.13,44a1.12,1.12,0,0,1-1.08-1.15V36.26a2.16,2.16,0,0,1,2.09-2.21H104.3a2.15,2.15,0,0,1,2.08,2.21v6.62a1,1,0,0,1-1,1.07Z"/><path class="cls-4" d="M98.25,21.3a2.18,2.18,0,1,1,2.18-2.18A2.19,2.19,0,0,1,98.25,21.3Zm0-3.28a1.1,1.1,0,1,0,1.09,1.1A1.09,1.09,0,0,0,98.25,18Z"/><path class="cls-4" d="M153.57,11.79h0a3.55,3.55,0,0,0-2.74,1.12c-1.46,1.59-1.41,4.35-1.31,5.46a2.76,2.76,0,0,0,.07.49l1.48,8.06a1.7,1.7,0,0,0,.84,1.15,1.66,1.66,0,0,0,.79.2h1.59a1.6,1.6,0,0,0,.79-.2,1.63,1.63,0,0,0,.79-1.08l1.67-8a4.43,4.43,0,0,0,.08-.8C157.61,16.7,157.3,11.79,153.57,11.79Zm2.89,7-1.66,8a.54.54,0,0,1-.52.42h-1.59a.58.58,0,0,1-.56-.47l-1.49-8.06h0c0-.13,0-.26,0-.38-.06-.76-.17-3.32,1-4.63a2.5,2.5,0,0,1,1.94-.78h0c2.73,0,3,4.09,3,5.34A2.83,2.83,0,0,1,156.46,18.78Z"/><path class="cls-4" d="M155.07,28.07V53.9H151.9V28.07a1.66,1.66,0,0,0,.79.2h.3V53h1V28.27h.29A1.6,1.6,0,0,0,155.07,28.07Z"/><path class="cls-4" d="M155.07,27.19v.88a1.6,1.6,0,0,1-.79.2h-1.59a1.66,1.66,0,0,1-.79-.2v-.88Z"/><path class="cls-4" d="M143.65,36.39H124.1a1.53,1.53,0,0,1-1.53-1.52V31a1.53,1.53,0,0,1,1.53-1.52h19.54a1.54,1.54,0,0,1,1.53,1.53v3.82A1.52,1.52,0,0,1,143.65,36.39ZM124.1,30.61a.44.44,0,0,0-.44.43v3.83a.44.44,0,0,0,.44.43h19.55a.43.43,0,0,0,.43-.43V31.05a.44.44,0,0,0-.44-.44Z"/><path class="cls-4" d="M141.75,30.61H126a1,1,0,0,1-1-1v-1a1,1,0,0,1,1-1h15.77a1,1,0,0,1,1,1v1A1,1,0,0,1,141.75,30.61ZM126.1,29.52h15.53v-.79H126.1Z"/><path class="cls-4" d="M125.41,35.3v5.84h16.82V35.3Zm15.74,4.75H126.5V36.39h14.65Z"/><path class="cls-4" d="M146.12,45.6v8.48H121.39V45.63a3.47,3.47,0,0,1,1.11-2.55l2.91-2.72v.78h.76l-2.93,2.73a2.4,2.4,0,0,0-.76,1.76v7.54H145V45.6a2.4,2.4,0,0,0-.73-1.73l-2.83-2.73h.76v-.78l2.83,2.73A3.53,3.53,0,0,1,146.12,45.6Z"/><polygon class="cls-4" points="142.24 40.36 142.24 41.14 125.41 41.14 125.41 40.36 125.74 40.05 141.91 40.05 142.24 40.36"/><path class="cls-4" d="M107.14,44A2,2,0,0,1,105.61,45H91.07A2.08,2.08,0,0,1,89.33,44Z"/><path class="cls-4" d="M74.1,38.39V24.92A3.12,3.12,0,0,0,71,21.8H43.92a3.12,3.12,0,0,0-3.12,3.12V38.39H39.3v6.82H75.6V38.39Zm.41,5.73H40.39V39.47h1.5V24.92a2,2,0,0,1,2-2H71a2,2,0,0,1,2,2V39.47h1.5Z"/><polygon class="cls-4" points="73.11 44.12 72.92 45.21 41.98 45.21 41.79 44.12 73.11 44.12"/><path class="cls-4" d="M78.35,54.62H38.52l-.13-.09a7.17,7.17,0,0,1,.27-.82c.7-1.85,1.72-2.29,2.23-2.4l2.56-2.92-.56-3.18H44l.62,3.51-3.2,3.65h-.25s-.71.08-1.32,1.34h37c-.61-1.27-1.33-1.34-1.34-1.34l-.22,0-.17-.17-3-3.46.61-3.51h1.11l-.56,3.18,2.56,2.92c.5.11,1.53.55,2.24,2.4A8.93,8.93,0,0,1,78.35,54.62Z"/></g></g></svg>