<svg xmlns="http://www.w3.org/2000/svg" viewBox="0 0 190 145.26"><defs><style>.cls-1{fill:#454346;}.cls-2{fill:#036;}.cls-3{fill:#ea9423;}</style></defs><title>Logo</title><g id="Capa_2" data-name="Capa 2"><g id="Capa_1-2" data-name="Capa 1"><path class="cls-1" d="M34.92,121.11a.34.34,0,0,1,.15.14.25.25,0,0,1,0,.22l-1,1.36a.21.21,0,0,1-.14.11.24.24,0,0,1-.17,0,2.25,2.25,0,0,0-.61-.33,2.4,2.4,0,0,0-.71-.11,2.2,2.2,0,0,0-.86.17,2.15,2.15,0,0,0-1.12,1.2,2.37,2.37,0,0,0-.16.88,2.28,2.28,0,0,0,.16.87,2.07,2.07,0,0,0,.44.71,2.2,2.2,0,0,0,.68.48,2,2,0,0,0,.86.18,2.08,2.08,0,0,0,.71-.12,2.16,2.16,0,0,0,.62-.33.35.35,0,0,1,.17,0,.23.23,0,0,1,.14.11l1,1.39a.23.23,0,0,1,0,.21.4.4,0,0,1-.14.15,4.87,4.87,0,0,1-1.15.55,4.36,4.36,0,0,1-1.3.2,4.45,4.45,0,0,1-1.16-.16,4.17,4.17,0,0,1-1-.44,4.12,4.12,0,0,1-1.55-1.55,4.1,4.1,0,0,1-.44-1,4.28,4.28,0,0,1,0-2.32,4.34,4.34,0,0,1,.44-1A4.24,4.24,0,0,1,30.3,121a4.58,4.58,0,0,1,1-.44,4.45,4.45,0,0,1,1.16-.15,4.13,4.13,0,0,1,1.28.19A4,4,0,0,1,34.92,121.11Z"/><path class="cls-1" d="M36,125.33a3.73,3.73,0,0,1,.13-1,3.37,3.37,0,0,1,.38-.89,3.74,3.74,0,0,1,1.33-1.33,3.82,3.82,0,0,1,3.35-.21,3.55,3.55,0,0,1,1.18.79,3.67,3.67,0,0,1,1.09,2.65,3.66,3.66,0,0,1-.14,1,3.56,3.56,0,0,1-.37.9,3.77,3.77,0,0,1-.58.75,4.18,4.18,0,0,1-.75.58,4.08,4.08,0,0,1-.89.37,3.64,3.64,0,0,1-1,.13,3.74,3.74,0,0,1-1.9-.5,3.58,3.58,0,0,1-.75-.58,3.77,3.77,0,0,1-.58-.75,3.58,3.58,0,0,1-.38-.9A3.66,3.66,0,0,1,36,125.33Zm2.07,0a2,2,0,0,0,.12.7,1.78,1.78,0,0,0,.33.57,1.57,1.57,0,0,0,1.2.51,1.46,1.46,0,0,0,.67-.14,1.55,1.55,0,0,0,.5-.37,1.59,1.59,0,0,0,.32-.57,2,2,0,0,0,.11-.7,2.05,2.05,0,0,0-.11-.7,1.83,1.83,0,0,0-.32-.58,1.61,1.61,0,0,0-.5-.39,1.46,1.46,0,0,0-.67-.14,1.58,1.58,0,0,0-.69.14,1.65,1.65,0,0,0-.51.39,2,2,0,0,0-.45,1.28Z"/><path class="cls-1" d="M44.63,122.13a.4.4,0,0,1,.14-.31.55.55,0,0,1,.15-.08l.16,0h.86a.3.3,0,0,1,.23.09.77.77,0,0,1,.14.21,2.49,2.49,0,0,1,.11.29,2.83,2.83,0,0,0,.11.31c.11-.12.22-.25.34-.37a2.17,2.17,0,0,1,.36-.32,1.55,1.55,0,0,1,.42-.23,1.44,1.44,0,0,1,.53-.09,4.26,4.26,0,0,1,.54,0,3.09,3.09,0,0,1,.46.14,2.92,2.92,0,0,1,.43.22l.46.32c.17.1.25.21.25.34a.56.56,0,0,1-.1.29l-.52.88a.47.47,0,0,1-.38.22.65.65,0,0,1-.25-.06,2,2,0,0,0-.5-.36,1.34,1.34,0,0,0-.58-.11,1.23,1.23,0,0,0-.39.06,1.11,1.11,0,0,0-.3.17A1.76,1.76,0,0,0,47,124a2.36,2.36,0,0,0-.23.35v4.11a.45.45,0,0,1-.11.33.49.49,0,0,1-.35.11H45.07a.39.39,0,0,1-.44-.44Z"/><path class="cls-1" d="M51.32,121.78a.37.37,0,0,1,.15-.08l.16,0h.85a.48.48,0,0,1,.18,0,.27.27,0,0,1,.12.09s0,.09.08.14a.84.84,0,0,1,0,.17l.24.68.33-.41a2,2,0,0,1,.38-.39,1.91,1.91,0,0,1,.53-.29,2.28,2.28,0,0,1,.75-.11,3.55,3.55,0,0,1,1.43.29,3.25,3.25,0,0,1,1.13.79,3.42,3.42,0,0,1,.74,1.18,4.11,4.11,0,0,1,0,2.93A3.47,3.47,0,0,1,57.7,128a3.38,3.38,0,0,1-1.13.79,3.55,3.55,0,0,1-1.43.29,2,2,0,0,1-.64-.09,1.58,1.58,0,0,1-.47-.23,2.25,2.25,0,0,1-.37-.31c-.11-.11-.21-.23-.31-.34v2.65a.44.44,0,0,1-.11.29.37.37,0,0,1-.31.12h-1.3l-.15,0a.53.53,0,0,1-.15-.08.35.35,0,0,1-.11-.13.34.34,0,0,1,0-.17v-8.63a.36.36,0,0,1,0-.19A.76.76,0,0,1,51.32,121.78Zm5.31,3.55a2,2,0,0,0-.12-.69,1.63,1.63,0,0,0-.34-.57,1.43,1.43,0,0,0-.52-.39,1.59,1.59,0,0,0-.66-.14,1.72,1.72,0,0,0-.68.13,1.92,1.92,0,0,0-.56.36,2,2,0,0,0-.39.55,1.54,1.54,0,0,0-.17.66v.09a1.82,1.82,0,0,0,.14.7,1.61,1.61,0,0,0,.39.57,1.92,1.92,0,0,0,.57.39,1.82,1.82,0,0,0,.7.14,1.59,1.59,0,0,0,.66-.14,1.69,1.69,0,0,0,.52-.39,1.63,1.63,0,0,0,.34-.57A2,2,0,0,0,56.63,125.33Z"/><path class="cls-1" d="M59.63,125.33a3.73,3.73,0,0,1,.13-1,3.37,3.37,0,0,1,.38-.89,3.54,3.54,0,0,1,1.33-1.33,3.82,3.82,0,0,1,3.35-.21,3.65,3.65,0,0,1,1.18.79,3.67,3.67,0,0,1,1.09,2.65,3.66,3.66,0,0,1-.14,1,3.56,3.56,0,0,1-.37.9A3.77,3.77,0,0,1,66,128a4.18,4.18,0,0,1-.75.58,4.08,4.08,0,0,1-.89.37,3.64,3.64,0,0,1-1,.13,3.74,3.74,0,0,1-1.9-.5,3.92,3.92,0,0,1-.76-.58,4.12,4.12,0,0,1-.57-.75,3.58,3.58,0,0,1-.38-.9A3.66,3.66,0,0,1,59.63,125.33Zm2.07,0a2,2,0,0,0,.12.7,1.47,1.47,0,0,0,.33.57,1.57,1.57,0,0,0,1.2.51A1.49,1.49,0,0,0,64,127a1.55,1.55,0,0,0,.5-.37,1.59,1.59,0,0,0,.32-.57,2.28,2.28,0,0,0,.11-.7,2.33,2.33,0,0,0-.11-.7,1.83,1.83,0,0,0-.32-.58,1.61,1.61,0,0,0-.5-.39,1.49,1.49,0,0,0-.67-.14,1.58,1.58,0,0,0-.69.14,1.65,1.65,0,0,0-.51.39,1.68,1.68,0,0,0-.33.58A2.06,2.06,0,0,0,61.7,125.33Z"/><path class="cls-1" d="M68.22,122.13a.4.4,0,0,1,.14-.31.55.55,0,0,1,.15-.08l.16,0h.86a.3.3,0,0,1,.23.09.77.77,0,0,1,.14.21,2.49,2.49,0,0,1,.11.29,1.63,1.63,0,0,0,.11.31c.11-.12.22-.25.34-.37a2.17,2.17,0,0,1,.36-.32,1.55,1.55,0,0,1,.42-.23,1.42,1.42,0,0,1,.52-.09,4.29,4.29,0,0,1,.55,0,3.09,3.09,0,0,1,.46.14,2.92,2.92,0,0,1,.43.22l.46.32c.17.1.25.21.25.34a.56.56,0,0,1-.1.29l-.52.88a.47.47,0,0,1-.38.22.65.65,0,0,1-.25-.06,2,2,0,0,0-.5-.36,1.34,1.34,0,0,0-.58-.11,1.23,1.23,0,0,0-.39.06,1.11,1.11,0,0,0-.3.17,1.76,1.76,0,0,0-.26.28,3.53,3.53,0,0,0-.24.35v4.11a.45.45,0,0,1-.1.33.49.49,0,0,1-.35.11H68.66a.39.39,0,0,1-.44-.44Z"/><path class="cls-1" d="M82,128.51a.37.37,0,0,1,0,.18.26.26,0,0,1-.11.14.22.22,0,0,1-.15.08.39.39,0,0,1-.15,0H80.45a.5.5,0,0,1-.19,0,.27.27,0,0,1-.12-.09.46.46,0,0,1-.07-.14.75.75,0,0,1-.07-.18l-.07-.25c-.11.1-.22.2-.35.3a2.13,2.13,0,0,1-.44.26,2.47,2.47,0,0,1-.5.19,2.1,2.1,0,0,1-.56.07,3.54,3.54,0,0,1-1-.13,3.89,3.89,0,0,1-.89-.37,4.18,4.18,0,0,1-.75-.58,4.12,4.12,0,0,1-.57-.75,4,4,0,0,1-.38-.9,4.09,4.09,0,0,1-.13-1,3.74,3.74,0,0,1,.29-1.47,3.88,3.88,0,0,1,.79-1.18,3.72,3.72,0,0,1,2.63-1.08,2.84,2.84,0,0,1,.66.08,2,2,0,0,1,.55.22,2.51,2.51,0,0,1,.46.32,2.71,2.71,0,0,1,.36.41l.16-.51.1-.23a.26.26,0,0,1,.08-.13.17.17,0,0,1,.1-.06l.18,0h.84l.15,0a.28.28,0,0,1,.15.08.36.36,0,0,1,.11.14.41.41,0,0,1,0,.19Zm-5.6-3.18a2,2,0,0,0,.12.7,1.47,1.47,0,0,0,.33.57,1.64,1.64,0,0,0,.52.37,1.49,1.49,0,0,0,.67.14,1.67,1.67,0,0,0,.71-.14,1.87,1.87,0,0,0,.57-.37,1.9,1.9,0,0,0,.38-.57,1.82,1.82,0,0,0,.13-.7,1.85,1.85,0,0,0-.13-.7,2.24,2.24,0,0,0-.38-.58,1.92,1.92,0,0,0-.57-.39,1.67,1.67,0,0,0-.71-.14,1.49,1.49,0,0,0-.67.14,1.62,1.62,0,0,0-.85,1A2.06,2.06,0,0,0,76.42,125.33Z"/><path class="cls-1" d="M88,126.71a.34.34,0,0,1,.15-.07l.11,0a.48.48,0,0,1,.18,0,.53.53,0,0,1,.16.17l.64,1a.37.37,0,0,1,.05.11.16.16,0,0,1,0,.09.3.3,0,0,1-.08.21c-.06.06-.12.1-.18.15a4.42,4.42,0,0,1-1,.51,3.27,3.27,0,0,1-1.17.2,3.58,3.58,0,0,1-1-.13,3.89,3.89,0,0,1-.89-.37,3.74,3.74,0,0,1-1.33-1.33,4.48,4.48,0,0,1-.37-.9,3.66,3.66,0,0,1-.13-1,3.73,3.73,0,0,1,.13-1,4.16,4.16,0,0,1,.37-.89,3.58,3.58,0,0,1,.58-.75,3.77,3.77,0,0,1,.75-.58,3.89,3.89,0,0,1,.89-.37,3.58,3.58,0,0,1,1-.13,4.13,4.13,0,0,1,1.14.16,3.81,3.81,0,0,1,1,.49h0a.67.67,0,0,1,.2.17.41.41,0,0,1,.07.25.35.35,0,0,1-.07.21l-.5.86a.47.47,0,0,1-.39.27.3.3,0,0,1-.12,0l-.17-.09a2.48,2.48,0,0,0-.54-.27,1.74,1.74,0,0,0-.61-.1,1.48,1.48,0,0,0-.66.14,1.65,1.65,0,0,0-.51.39,2,2,0,0,0-.45,1.28,2,2,0,0,0,.12.7,1.78,1.78,0,0,0,.33.57,1.59,1.59,0,0,0,.51.37,1.48,1.48,0,0,0,.66.14,1.74,1.74,0,0,0,.61-.11A2.81,2.81,0,0,0,88,126.71Z"/><path class="cls-1" d="M90.39,119.28a.46.46,0,0,1,.11-.34.44.44,0,0,1,.31-.1h1.32a.51.51,0,0,1,.32.1.4.4,0,0,1,.13.34v1.11a.44.44,0,0,1,0,.15l-.09.15a.53.53,0,0,1-.14.12.41.41,0,0,1-.19,0H90.81c-.28,0-.42-.16-.42-.47Zm0,2.88a.52.52,0,0,1,.11-.32.38.38,0,0,1,.31-.13h1.31l.14,0a.56.56,0,0,1,.15.1.41.41,0,0,1,.12.14.35.35,0,0,1,0,.18v6.33a.42.42,0,0,1-.12.33.51.51,0,0,1-.34.11H90.81c-.28,0-.42-.15-.42-.44Z"/><path class="cls-1" d="M93.85,125.33a3.88,3.88,0,0,1,.51-1.9,3.66,3.66,0,0,1,1.34-1.33,3.74,3.74,0,0,1,1.89-.5,3.77,3.77,0,0,1,1.46.29,3.65,3.65,0,0,1,1.18.79,3.71,3.71,0,0,1,.79,1.18,3.58,3.58,0,0,1,.3,1.47,3.66,3.66,0,0,1-.14,1,4,4,0,0,1-.37.9,3.74,3.74,0,0,1-1.33,1.33,4.08,4.08,0,0,1-.89.37,3.66,3.66,0,0,1-1,.13,3.74,3.74,0,0,1-1.89-.5,3.92,3.92,0,0,1-.76-.58,4.18,4.18,0,0,1-.58-.75,4,4,0,0,1-.37-.9A3.66,3.66,0,0,1,93.85,125.33Zm2.08,0a2,2,0,0,0,.12.7,1.47,1.47,0,0,0,.33.57,1.59,1.59,0,0,0,.51.37,1.52,1.52,0,0,0,.69.14,1.42,1.42,0,0,0,.66-.14,1.59,1.59,0,0,0,.51-.37,1.76,1.76,0,0,0,.32-.57,2.28,2.28,0,0,0,.11-.7,2.33,2.33,0,0,0-.11-.7,2,2,0,0,0-.32-.58,1.65,1.65,0,0,0-.51-.39,1.42,1.42,0,0,0-.66-.14,1.52,1.52,0,0,0-.69.14,1.65,1.65,0,0,0-.51.39,1.68,1.68,0,0,0-.33.58A2.06,2.06,0,0,0,95.93,125.33Zm1.24-5.89a.27.27,0,0,1,.11-.18.33.33,0,0,1,.19-.06h1.47a.16.16,0,0,1,.12,0,.16.16,0,0,1,.06.08.24.24,0,0,1,0,.12.38.38,0,0,1,0,.13l-.55,1.22a.7.7,0,0,1-.14.18.24.24,0,0,1-.17.06H97a.13.13,0,0,1-.11,0,.2.2,0,0,1,0-.11.62.62,0,0,1,0-.13,1.11,1.11,0,0,0,0-.13Z"/><path class="cls-1" d="M102.72,121.82a.27.27,0,0,1,.16-.08.39.39,0,0,1,.15,0h.86a.34.34,0,0,1,.18,0,.27.27,0,0,1,.12.09.44.44,0,0,1,.08.15.44.44,0,0,1,.06.16l.12.5a1.26,1.26,0,0,1,.28-.36,1.89,1.89,0,0,1,.47-.34,2.94,2.94,0,0,1,.65-.26,3.52,3.52,0,0,1,.83-.09,2.66,2.66,0,0,1,1.15.24,2.77,2.77,0,0,1,.87.68,3.37,3.37,0,0,1,.54,1,4.16,4.16,0,0,1,.18,1.23v3.72a.5.5,0,0,1-.09.33.41.41,0,0,1-.3.11h-1.31a.54.54,0,0,1-.34-.08.44.44,0,0,1-.09-.32v-3.7a1.08,1.08,0,0,0-.11-.47,1.53,1.53,0,0,0-.29-.38,1.68,1.68,0,0,0-.42-.27,1.27,1.27,0,0,0-.47-.09,1,1,0,0,0-.41.09,1.24,1.24,0,0,0-.39.25,1.91,1.91,0,0,0-.31.38,1.15,1.15,0,0,0-.13.48v3.69a.65.65,0,0,1,0,.19.3.3,0,0,1-.11.15l-.14.06a.39.39,0,0,1-.15,0H103a.45.45,0,0,1-.35-.12.46.46,0,0,1-.11-.32v-6.35a.46.46,0,0,1,.05-.2.35.35,0,0,1,.13-.14Z"/><path class="cls-1" d="M114.49,121.78a.4.4,0,0,1,.16-.08l.15,0h.86a.48.48,0,0,1,.18,0,.34.34,0,0,1,.12.09.61.61,0,0,1,.07.14l.06.17.24.68c.11-.13.21-.27.32-.41A2.79,2.79,0,0,1,117,122a2.07,2.07,0,0,1,.53-.29,2.37,2.37,0,0,1,.75-.11,3.6,3.6,0,0,1,1.44.29,3.34,3.34,0,0,1,1.13.79,3.58,3.58,0,0,1,.74,1.18,4.11,4.11,0,0,1,0,2.93,3.62,3.62,0,0,1-.74,1.19,3.49,3.49,0,0,1-1.13.79,3.6,3.6,0,0,1-1.44.29,2,2,0,0,1-.63-.09,1.78,1.78,0,0,1-.48-.23,1.83,1.83,0,0,1-.36-.31l-.32-.34v2.65a.43.43,0,0,1-.1.29.39.39,0,0,1-.32.12h-1.3l-.15,0-.14-.08a.37.37,0,0,1-.12-.13.33.33,0,0,1,0-.17v-8.63a.36.36,0,0,1,0-.19A.71.71,0,0,1,114.49,121.78Zm5.31,3.55a2,2,0,0,0-.12-.69,1.78,1.78,0,0,0-.33-.57,1.52,1.52,0,0,0-.52-.39,1.59,1.59,0,0,0-.66-.14,1.72,1.72,0,0,0-.68.13,1.74,1.74,0,0,0-1,.91,1.89,1.89,0,0,0-.17.66v.09a1.66,1.66,0,0,0,.15.7,1.73,1.73,0,0,0,.38.57,2.11,2.11,0,0,0,.58.39,1.82,1.82,0,0,0,.7.14,1.59,1.59,0,0,0,.66-.14,1.82,1.82,0,0,0,.52-.39,1.78,1.78,0,0,0,.33-.57A2,2,0,0,0,119.8,125.33Z"/><path class="cls-1" d="M130.45,128.51a.52.52,0,0,1,0,.18.24.24,0,0,1-.12.14.23.23,0,0,1-.14.08.44.44,0,0,1-.15,0h-1.12a.5.5,0,0,1-.19,0,.27.27,0,0,1-.12-.09.47.47,0,0,1-.08-.14l-.07-.18-.07-.25a3.63,3.63,0,0,1-.35.3,2.05,2.05,0,0,1-.43.26,2.82,2.82,0,0,1-.51.19,2,2,0,0,1-.56.07,3.64,3.64,0,0,1-1-.13,3.81,3.81,0,0,1-.88-.37,3.58,3.58,0,0,1-.75-.58,3.77,3.77,0,0,1-.58-.75,4,4,0,0,1-.37-.9,3.66,3.66,0,0,1-.13-1,3.74,3.74,0,0,1,.29-1.47,3.71,3.71,0,0,1,.79-1.18,3.51,3.51,0,0,1,1.17-.79,3.75,3.75,0,0,1,1.45-.29,2.71,2.71,0,0,1,.66.08,2.11,2.11,0,0,1,.56.22,2.14,2.14,0,0,1,.45.32,2.71,2.71,0,0,1,.36.41l.17-.51.09-.23a.36.36,0,0,1,.08-.13.2.2,0,0,1,.11-.06l.17,0H130l.15,0a.29.29,0,0,1,.14.08.31.31,0,0,1,.12.14.58.58,0,0,1,0,.19Zm-5.59-3.18a2,2,0,0,0,.11.7,1.78,1.78,0,0,0,.33.57,1.76,1.76,0,0,0,.52.37,1.53,1.53,0,0,0,.68.14,1.62,1.62,0,0,0,.7-.14,1.87,1.87,0,0,0,.57-.37,1.73,1.73,0,0,0,.38-.57,1.82,1.82,0,0,0,.14-.7,1.86,1.86,0,0,0-.14-.7,2,2,0,0,0-.38-.58,1.92,1.92,0,0,0-.57-.39,1.62,1.62,0,0,0-.7-.14,1.53,1.53,0,0,0-.68.14,1.82,1.82,0,0,0-.52.39,2.08,2.08,0,0,0-.33.58A2.05,2.05,0,0,0,124.86,125.33Z"/><path class="cls-1" d="M131.82,122.13a.34.34,0,0,1,0-.18.27.27,0,0,1,.1-.13.36.36,0,0,1,.15-.08.45.45,0,0,1,.16,0h.86a.32.32,0,0,1,.23.09,1.1,1.1,0,0,1,.14.21,2.49,2.49,0,0,1,.11.29,2.81,2.81,0,0,0,.1.31c.12-.12.23-.25.34-.37a2.17,2.17,0,0,1,.36-.32,1.61,1.61,0,0,1,.43-.23,1.42,1.42,0,0,1,.52-.09,4.29,4.29,0,0,1,.55,0,3.5,3.5,0,0,1,.46.14,2.92,2.92,0,0,1,.43.22l.46.32a.41.41,0,0,1,.24.34.64.64,0,0,1-.09.29l-.52.88a.47.47,0,0,1-.38.22.69.69,0,0,1-.26-.06,1.76,1.76,0,0,0-.49-.36,1.34,1.34,0,0,0-.58-.11,1.14,1.14,0,0,0-.39.06,1.11,1.11,0,0,0-.3.17,1.76,1.76,0,0,0-.26.28,3.53,3.53,0,0,0-.24.35v4.11a.45.45,0,0,1-.1.33.49.49,0,0,1-.35.11h-1.28a.39.39,0,0,1-.44-.44Z"/><path class="cls-1" d="M145.61,128.51a.52.52,0,0,1,0,.18.26.26,0,0,1-.11.14.28.28,0,0,1-.15.08.44.44,0,0,1-.15,0h-1.12a.5.5,0,0,1-.19,0,.27.27,0,0,1-.12-.09.47.47,0,0,1-.08-.14,1.89,1.89,0,0,1-.06-.18l-.08-.25a3.63,3.63,0,0,1-.35.3,2.05,2.05,0,0,1-.43.26,3,3,0,0,1-.5.19,2.1,2.1,0,0,1-.56.07,3.66,3.66,0,0,1-1-.13,3.81,3.81,0,0,1-.88-.37,3.58,3.58,0,0,1-.75-.58,4.18,4.18,0,0,1-.58-.75,4,4,0,0,1-.37-.9,3.66,3.66,0,0,1-.13-1,3.74,3.74,0,0,1,.29-1.47,3.71,3.71,0,0,1,.79-1.18,3.55,3.55,0,0,1,1.18-.79,3.68,3.68,0,0,1,1.45-.29,2.69,2.69,0,0,1,.65.08,2.11,2.11,0,0,1,.56.22,2.51,2.51,0,0,1,.46.32,3.31,3.31,0,0,1,.35.41l.17-.51.09-.23a.36.36,0,0,1,.08-.13.24.24,0,0,1,.11-.06l.17,0h.85l.15,0a.37.37,0,0,1,.15.08.36.36,0,0,1,.11.14.58.58,0,0,1,0,.19ZM140,125.33a2.28,2.28,0,0,0,.11.7,1.63,1.63,0,0,0,.34.57,1.59,1.59,0,0,0,.51.37,1.53,1.53,0,0,0,.68.14,1.7,1.7,0,0,0,.71-.14,2,2,0,0,0,.56-.37,1.59,1.59,0,0,0,.38-.57,1.82,1.82,0,0,0,.14-.7,1.86,1.86,0,0,0-.14-.7,1.82,1.82,0,0,0-.38-.58,2,2,0,0,0-.56-.39,1.7,1.7,0,0,0-.71-.14,1.53,1.53,0,0,0-.68.14,1.65,1.65,0,0,0-.51.39,1.88,1.88,0,0,0-.34.58A2.33,2.33,0,0,0,140,125.33Z"/><path class="cls-1" d="M150.54,120a.49.49,0,0,1,.09-.3.35.35,0,0,1,.31-.13h1.4l.12,0a.31.31,0,0,1,.11.09.34.34,0,0,1,.09.14.33.33,0,0,1,0,.17v8.49a.42.42,0,0,1-.12.33.48.48,0,0,1-.32.11h-1.32a.4.4,0,0,1-.31-.11.5.5,0,0,1-.09-.33Z"/><path class="cls-1" d="M161.49,128.51a.52.52,0,0,1,0,.18.28.28,0,0,1-.12.14.23.23,0,0,1-.14.08.44.44,0,0,1-.15,0h-1.12a.47.47,0,0,1-.19,0,.27.27,0,0,1-.12-.09.47.47,0,0,1-.08-.14l-.07-.18-.07-.25a3.63,3.63,0,0,1-.35.3,2.05,2.05,0,0,1-.43.26,2.82,2.82,0,0,1-.51.19,2,2,0,0,1-.56.07,3.64,3.64,0,0,1-1-.13,4.08,4.08,0,0,1-.89-.37,3.82,3.82,0,0,1-1.32-1.33,4,4,0,0,1-.37-.9,3.66,3.66,0,0,1-.13-1,3.72,3.72,0,0,1,1.08-2.65,3.51,3.51,0,0,1,1.17-.79,3.72,3.72,0,0,1,1.45-.29,2.71,2.71,0,0,1,.66.08,2.11,2.11,0,0,1,.56.22,2.14,2.14,0,0,1,.45.32,2.71,2.71,0,0,1,.36.41l.17-.51c0-.1.07-.17.09-.23a.26.26,0,0,1,.08-.13.21.21,0,0,1,.1-.06l.18,0h.85l.15,0a.29.29,0,0,1,.14.08.39.39,0,0,1,.12.14.58.58,0,0,1,0,.19Zm-5.6-3.18a2,2,0,0,0,.12.7,1.78,1.78,0,0,0,.33.57,1.76,1.76,0,0,0,.52.37,1.51,1.51,0,0,0,.68.14,1.62,1.62,0,0,0,.7-.14,1.87,1.87,0,0,0,.57-.37,1.73,1.73,0,0,0,.38-.57,1.82,1.82,0,0,0,.14-.7,1.86,1.86,0,0,0-.14-.7,2,2,0,0,0-.38-.58,1.92,1.92,0,0,0-.57-.39,1.62,1.62,0,0,0-.7-.14,1.51,1.51,0,0,0-.68.14,1.82,1.82,0,0,0-.52.39,2,2,0,0,0-.45,1.28Z"/><path class="cls-1" d="M0,134.38a.28.28,0,0,1,.06-.18.24.24,0,0,1,.19-.07H1.92a.27.27,0,0,1,.18.07.19.19,0,0,1,.1.18v7.94c0,.17-.09.25-.28.25H.25a.22.22,0,0,1-.25-.25Z"/><path class="cls-1" d="M3.94,135.45a.4.4,0,0,1,.16-.08h1a.48.48,0,0,1,.18,0l.13.1a.64.64,0,0,1,.08.14l.06.17.12.5a1.21,1.21,0,0,1,.27-.36,2.5,2.5,0,0,1,.47-.35,3.52,3.52,0,0,1,.65-.25,3.56,3.56,0,0,1,.83-.1,2.71,2.71,0,0,1,1.16.25,2.85,2.85,0,0,1,.86.68,3,3,0,0,1,.54,1,4.06,4.06,0,0,1,.18,1.23v3.72a.52.52,0,0,1-.09.33.38.38,0,0,1-.3.11H8.94a.56.56,0,0,1-.34-.08.45.45,0,0,1-.09-.32v-3.7A1,1,0,0,0,8.4,138a1.33,1.33,0,0,0-.29-.38,1.39,1.39,0,0,0-.41-.27,1.32,1.32,0,0,0-.47-.1,1.07,1.07,0,0,0-.42.1,1.36,1.36,0,0,0-.39.25,1.4,1.4,0,0,0-.3.38,1.11,1.11,0,0,0-.14.47v3.7a.43.43,0,0,1,0,.19.28.28,0,0,1-.11.15l-.14.06-.15,0H4.26a.47.47,0,0,1-.36-.12.47.47,0,0,1-.1-.32v-6.35a.42.42,0,0,1,0-.2.38.38,0,0,1,.14-.14Z"/><path class="cls-1" d="M11.52,135.91a.46.46,0,0,1,0-.39.33.33,0,0,1,.34-.17h1.45a.45.45,0,0,1,.26.08.39.39,0,0,1,.16.23l.21.67c.08.25.16.51.25.78s.17.52.25.78l.23.72c.07.21.13.4.19.56s.09.28.12.35l1.2-3.86a.64.64,0,0,1,.17-.25.51.51,0,0,1,.27-.06h1.49a.76.76,0,0,1,.25,0c.06,0,.1.06.11.11a.27.27,0,0,1,0,.16,1.89,1.89,0,0,1-.06.18l-2.71,6.48a.86.86,0,0,1-.14.18.47.47,0,0,1-.26.07H14.6a.54.54,0,0,1-.32-.07.37.37,0,0,1-.14-.18Z"/><path class="cls-1" d="M25,141.7a3.75,3.75,0,0,1-1.13.72,3.31,3.31,0,0,1-1.32.26,3.81,3.81,0,0,1-1.47-.28,3.72,3.72,0,0,1-1.22-.79,3.65,3.65,0,0,1-.83-1.18,3.72,3.72,0,0,1-.18-2.46,3.66,3.66,0,0,1,.34-.87,3.63,3.63,0,0,1,1.27-1.35,3.94,3.94,0,0,1,.86-.38,3.67,3.67,0,0,1,1.9,0,4.05,4.05,0,0,1,.83.35,3.85,3.85,0,0,1,.71.55,3.13,3.13,0,0,1,.56.7,3,3,0,0,1,.36.8,3,3,0,0,1,.13.89c0,.19,0,.36,0,.48a.45.45,0,0,1-.09.3.44.44,0,0,1-.26.15,2.52,2.52,0,0,1-.54,0h-4.1a1.47,1.47,0,0,0,.23.61,1.34,1.34,0,0,0,.4.39,1.61,1.61,0,0,0,.49.21,2.1,2.1,0,0,0,.48.06,2,2,0,0,0,.42,0l.42-.11.37-.17a1.18,1.18,0,0,0,.27-.2l.15-.11a.35.35,0,0,1,.14,0,.23.23,0,0,1,.15.05.75.75,0,0,1,.18.15l.6.68a.38.38,0,0,1,.08.13.5.5,0,0,1,0,.12.27.27,0,0,1-.07.2A.62.62,0,0,1,25,141.7ZM22.24,137a1.07,1.07,0,0,0-.43.09,2.65,2.65,0,0,0-.39.23,2.05,2.05,0,0,0-.32.34,2,2,0,0,0-.24.38h2.91a4.1,4.1,0,0,0-.26-.41,2.5,2.5,0,0,0-.32-.33,1.47,1.47,0,0,0-.41-.22A1.71,1.71,0,0,0,22.24,137Z"/><path class="cls-1" d="M28.06,140.32a1.35,1.35,0,0,0,.33.26,2.15,2.15,0,0,0,.34.17,1.68,1.68,0,0,0,.29.1l.17,0h.28l.32-.05a.72.72,0,0,0,.26-.14.34.34,0,0,0,.11-.28.46.46,0,0,0-.06-.25.57.57,0,0,0-.18-.16,1.6,1.6,0,0,0-.29-.11l-.39-.12a5.12,5.12,0,0,1-1.13-.44,2.56,2.56,0,0,1-.7-.57,2,2,0,0,1-.36-.68,2.76,2.76,0,0,1-.1-.77,1.9,1.9,0,0,1,.19-.86,1.78,1.78,0,0,1,.53-.66,2.83,2.83,0,0,1,.83-.43,3.59,3.59,0,0,1,1.07-.15,3.48,3.48,0,0,1,.67.06,3,3,0,0,1,.6.19,3.57,3.57,0,0,1,.56.33,4.6,4.6,0,0,1,.53.48.33.33,0,0,1,.1.21.31.31,0,0,1-.13.22l-.42.36q-.19.16-.42.39a.28.28,0,0,1-.13.07.28.28,0,0,1-.13,0,.34.34,0,0,1-.12-.06.52.52,0,0,1-.11-.1,1,1,0,0,0-.45-.3,1.69,1.69,0,0,0-.48-.07.93.93,0,0,0-.44.09.3.3,0,0,0-.15.3.28.28,0,0,0,.11.23.68.68,0,0,0,.24.13,2.8,2.8,0,0,0,.31.09l.3.07c.34.11.65.23.93.35a2.78,2.78,0,0,1,.74.48,2,2,0,0,1,.49.67,2.46,2.46,0,0,1,.17,1,2.13,2.13,0,0,1-.84,1.75,2.89,2.89,0,0,1-.93.46,4.28,4.28,0,0,1-1.16.16,3.49,3.49,0,0,1-.71-.07,3.58,3.58,0,0,1-.71-.2,2.91,2.91,0,0,1-.64-.36,2.3,2.3,0,0,1-.55-.53.56.56,0,0,1-.09-.17.47.47,0,0,1,0-.17.33.33,0,0,1,0-.15.41.41,0,0,1,.1-.13l.74-.73a.25.25,0,0,1,.24-.08A.84.84,0,0,1,28.06,140.32Z"/><path class="cls-1" d="M34,134.23a.31.31,0,0,1,.11-.27,1.66,1.66,0,0,1,.33-.17l1.29-.44h.11a.3.3,0,0,1,.28.12.72.72,0,0,1,.07.32v1.57H37a.44.44,0,0,1,.3.1.47.47,0,0,1,.11.33v1.09a.49.49,0,0,1-.11.35.4.4,0,0,1-.3.11h-.78v4.8a.4.4,0,0,1-.13.33.5.5,0,0,1-.34.11H34.43a.38.38,0,0,1-.43-.44v-4.8H33.4c-.29,0-.43-.15-.43-.46v-1.09a.38.38,0,0,1,.43-.43H34Z"/><path class="cls-1" d="M38.43,132.92a.46.46,0,0,1,.11-.34.4.4,0,0,1,.31-.1h1.32a.46.46,0,0,1,.32.1.4.4,0,0,1,.13.34V134a.39.39,0,0,1,0,.14l-.09.16a.53.53,0,0,1-.14.12.41.41,0,0,1-.19.05H38.85c-.28,0-.42-.16-.42-.47Zm0,2.87a.49.49,0,0,1,.11-.31.35.35,0,0,1,.31-.13h1.31l.14,0a.38.38,0,0,1,.15.09.53.53,0,0,1,.12.14.41.41,0,0,1,0,.18v6.34a.43.43,0,0,1-.12.33.51.51,0,0,1-.34.11H38.85c-.28,0-.42-.15-.42-.44Z"/><path class="cls-1" d="M47.21,142.32a1.84,1.84,0,0,0,0-.25,2.71,2.71,0,0,0,0-.29v-.23c-.12.11-.23.23-.34.34a1.91,1.91,0,0,1-.38.31,1.68,1.68,0,0,1-.47.21,1.82,1.82,0,0,1-.6.08,3.71,3.71,0,0,1-1.43-.26,3.28,3.28,0,0,1-1.13-.73,3.37,3.37,0,0,1-.74-1.12,3.7,3.7,0,0,1-.27-1.44,3.86,3.86,0,0,1,.27-1.45,3.8,3.8,0,0,1,.74-1.19,3.6,3.6,0,0,1,1.13-.79,3.54,3.54,0,0,1,1.43-.28,2.2,2.2,0,0,1,.64.08,1.91,1.91,0,0,1,.53.22,2.36,2.36,0,0,1,.44.32c.13.13.25.26.37.4l.16-.51.06-.17a.46.46,0,0,1,.07-.14.36.36,0,0,1,.12-.08.48.48,0,0,1,.18,0h.85a.45.45,0,0,1,.16,0l.15.08a.64.64,0,0,1,.1.13.39.39,0,0,1,0,.18v5.79a4.12,4.12,0,0,1-.29,1.58,3.32,3.32,0,0,1-2,1.9,4.46,4.46,0,0,1-1.48.25,4,4,0,0,1-.66-.06,4.73,4.73,0,0,1-1.38-.43,3.56,3.56,0,0,1-.57-.39.75.75,0,0,1-.15-.16.37.37,0,0,1-.06-.21.58.58,0,0,1,.11-.3l.54-.74a.58.58,0,0,1,.15-.13.23.23,0,0,1,.14,0,.58.58,0,0,1,.32.13,1,1,0,0,0,.32.22,1.9,1.9,0,0,0,.38.13,2.85,2.85,0,0,0,.39.06l.35,0a2,2,0,0,0,.53-.07,2.33,2.33,0,0,0,.52-.2,2,2,0,0,0,.43-.33A1.07,1.07,0,0,0,47.21,142.32ZM44,138.94a2.3,2.3,0,0,0,.11.71,1.63,1.63,0,0,0,.34.57,1.53,1.53,0,0,0,.52.37,1.6,1.6,0,0,0,.67.14,1.91,1.91,0,0,0,.68-.13,1.68,1.68,0,0,0,.57-.36,1.89,1.89,0,0,0,.38-.53,1.64,1.64,0,0,0,.16-.66v-.19a1.69,1.69,0,0,0-.16-.66,1.94,1.94,0,0,0-.38-.54,1.8,1.8,0,0,0-1.25-.52,1.47,1.47,0,0,0-.67.15,1.35,1.35,0,0,0-.52.39,1.63,1.63,0,0,0-.34.57A2.26,2.26,0,0,0,44,138.94Z"/><path class="cls-1" d="M58.14,142.15a.57.57,0,0,1,0,.18.28.28,0,0,1-.12.14.29.29,0,0,1-.14.08l-.15,0H56.58a.47.47,0,0,1-.19,0,.27.27,0,0,1-.12-.09.47.47,0,0,1-.08-.14l-.07-.18-.07-.25a3.63,3.63,0,0,1-.35.3,2.58,2.58,0,0,1-.43.26,2.82,2.82,0,0,1-.51.19,2,2,0,0,1-.56.07,3.64,3.64,0,0,1-1-.13,3.81,3.81,0,0,1-.88-.37A3.66,3.66,0,0,1,51,140.86a3.74,3.74,0,0,1-.5-1.89,3.72,3.72,0,0,1,1.08-2.65,3.51,3.51,0,0,1,1.17-.79,3.54,3.54,0,0,1,1.45-.29,2.3,2.3,0,0,1,.66.08,2.49,2.49,0,0,1,.56.21,1.87,1.87,0,0,1,.45.33,2.3,2.3,0,0,1,.36.41l.17-.52c0-.09.07-.17.09-.22a.58.58,0,0,1,.08-.14.28.28,0,0,1,.11,0l.17,0h.85l.15,0a.29.29,0,0,1,.14.08.39.39,0,0,1,.12.14.57.57,0,0,1,0,.18ZM52.54,139a2,2,0,0,0,.12.7,1.73,1.73,0,0,0,.33.56,1.62,1.62,0,0,0,.52.38,1.69,1.69,0,0,0,.68.14,1.78,1.78,0,0,0,.7-.14,1.73,1.73,0,0,0,.57-.38,1.68,1.68,0,0,0,.38-.56,1.82,1.82,0,0,0,0-1.4,1.88,1.88,0,0,0-.38-.58,1.75,1.75,0,0,0-.57-.39,1.63,1.63,0,0,0-.7-.15,1.54,1.54,0,0,0-.68.15,1.65,1.65,0,0,0-.52.39,1.94,1.94,0,0,0-.33.58A2,2,0,0,0,52.54,139Z"/><path class="cls-1" d="M64.13,140.35a.34.34,0,0,1,.15-.07l.11,0a.33.33,0,0,1,.17,0,.45.45,0,0,1,.17.17l.64,1a.47.47,0,0,0,0,.1.2.2,0,0,1,0,.1.28.28,0,0,1-.08.21.86.86,0,0,1-.18.14,4.09,4.09,0,0,1-1,.52,3.51,3.51,0,0,1-1.17.2,3.64,3.64,0,0,1-1-.13,3.81,3.81,0,0,1-.88-.37,4.18,4.18,0,0,1-.75-.58,3.56,3.56,0,0,1-.58-.76,3.81,3.81,0,0,1,0-3.79,3.27,3.27,0,0,1,.58-.75,3.77,3.77,0,0,1,.75-.58,3.81,3.81,0,0,1,.88-.37,3.64,3.64,0,0,1,1-.13,3.54,3.54,0,0,1,2.13.65l0,0a.59.59,0,0,1,.2.18.38.38,0,0,1,.08.24.44.44,0,0,1-.07.21l-.51.86a.44.44,0,0,1-.38.28l-.13,0-.16-.09a2.73,2.73,0,0,0-.54-.27,1.78,1.78,0,0,0-.61-.11,1.45,1.45,0,0,0-.66.15,1.51,1.51,0,0,0-.51.39,1.77,1.77,0,0,0-.34.58,2.1,2.1,0,0,0,0,1.4,1.59,1.59,0,0,0,.34.56,1.48,1.48,0,0,0,.51.38,1.59,1.59,0,0,0,.66.14,1.78,1.78,0,0,0,.61-.11A3.5,3.5,0,0,0,64.13,140.35Z"/><path class="cls-1" d="M66.52,132.92a.46.46,0,0,1,.1-.34.44.44,0,0,1,.32-.1h1.32a.47.47,0,0,1,.32.1.43.43,0,0,1,.12.34V134a.39.39,0,0,1,0,.14.51.51,0,0,1-.09.16.41.41,0,0,1-.14.12.35.35,0,0,1-.18.05H66.94c-.28,0-.42-.16-.42-.47Zm0,2.87a.48.48,0,0,1,.1-.31.38.38,0,0,1,.32-.13h1.3l.15,0,.15.09a.76.76,0,0,1,.11.14.41.41,0,0,1,0,.18v6.34a.43.43,0,0,1-.12.33.5.5,0,0,1-.34.11h-1.3c-.28,0-.42-.15-.42-.44Z"/><path class="cls-1" d="M70,139a3.62,3.62,0,0,1,.51-1.9,3.74,3.74,0,0,1,1.33-1.33,4,4,0,0,1,.9-.37,3.66,3.66,0,0,1,1-.13,3.72,3.72,0,0,1,2.63,1.08,3.62,3.62,0,0,1,.8,1.18,3.73,3.73,0,0,1-.22,3.36,3.66,3.66,0,0,1-1.33,1.34,3.89,3.89,0,0,1-.89.37,3.87,3.87,0,0,1-2,0,4,4,0,0,1-.9-.37,3.66,3.66,0,0,1-1.33-1.34A3.61,3.61,0,0,1,70,139Zm2.07,0a2,2,0,0,0,.12.7,1.73,1.73,0,0,0,.33.56,1.43,1.43,0,0,0,.52.38,1.65,1.65,0,0,0,.68.14,1.6,1.6,0,0,0,.67-.14,1.48,1.48,0,0,0,.51-.38,1.69,1.69,0,0,0,.31-.56,2.28,2.28,0,0,0,0-1.4,1.9,1.9,0,0,0-.31-.58,1.51,1.51,0,0,0-.51-.39,1.47,1.47,0,0,0-.67-.15,1.51,1.51,0,0,0-.68.15,1.46,1.46,0,0,0-.52.39,1.94,1.94,0,0,0-.33.58A2,2,0,0,0,72.05,139Zm1.24-5.89a.29.29,0,0,1,.12-.19.41.41,0,0,1,.18,0h1.47a.23.23,0,0,1,.13,0,.24.24,0,0,1,.06.09.47.47,0,0,1,0,.12.56.56,0,0,1,0,.12l-.56,1.23a.7.7,0,0,1-.13.18.32.32,0,0,1-.18,0H73.1c-.06,0-.1,0-.12,0a.2.2,0,0,1,0-.11.78.78,0,0,1,0-.14,1,1,0,0,1,0-.12Z"/><path class="cls-1" d="M78.85,135.45a.31.31,0,0,1,.15-.08h1a.47.47,0,0,1,.17,0l.13.1a.64.64,0,0,1,.08.14l.06.17.12.5a1.21,1.21,0,0,1,.27-.36,2.29,2.29,0,0,1,.48-.35,3,3,0,0,1,.65-.25,3.41,3.41,0,0,1,.82-.1,2.52,2.52,0,0,1,2,.93,3,3,0,0,1,.54,1,4.06,4.06,0,0,1,.19,1.23v3.72a.52.52,0,0,1-.1.33.38.38,0,0,1-.3.11H83.84a.58.58,0,0,1-.34-.08.45.45,0,0,1-.09-.32v-3.7a1,1,0,0,0-.11-.47,1.33,1.33,0,0,0-.29-.38,1.39,1.39,0,0,0-.41-.27,1.32,1.32,0,0,0-.47-.1,1.07,1.07,0,0,0-.42.1,1.36,1.36,0,0,0-.39.25,1.4,1.4,0,0,0-.3.38,1.11,1.11,0,0,0-.14.47v3.7a.43.43,0,0,1,0,.19.28.28,0,0,1-.11.15.42.42,0,0,1-.14.06l-.15,0H79.16a.4.4,0,0,1-.46-.44v-6.35a.33.33,0,0,1,0-.2.29.29,0,0,1,.13-.14Z"/><path class="cls-1" d="M95.62,141.86c-.11.1-.22.2-.35.3a3.87,3.87,0,0,1-.43.27,2.48,2.48,0,0,1-.5.2,2,2,0,0,1-.56.07,3.5,3.5,0,0,1-1.42-.29,3.45,3.45,0,0,1-1.12-.79,3.77,3.77,0,0,1-.73-1.19,4.11,4.11,0,0,1,0-2.93,3.62,3.62,0,0,1,.73-1.18,3.3,3.3,0,0,1,1.12-.79,3.34,3.34,0,0,1,1.42-.29,3.48,3.48,0,0,1,.58,0,2.16,2.16,0,0,1,.47.16,2.55,2.55,0,0,1,.39.24,3.4,3.4,0,0,1,.34.32v-2.37a.41.41,0,0,1,.11-.31.42.42,0,0,1,.33-.13h1.28l.16,0,.15.09a.76.76,0,0,1,.11.14.34.34,0,0,1,0,.18v8.49c0,.29-.15.44-.46.44H96.17a.42.42,0,0,1-.18,0l-.11-.08a.91.91,0,0,1-.07-.14,1.54,1.54,0,0,0-.09-.19ZM92.29,139a2,2,0,0,0,.12.7,1.57,1.57,0,0,0,.33.56,1.52,1.52,0,0,0,.52.38,1.64,1.64,0,0,0,.67.14,1.8,1.8,0,0,0,.69-.13,1.92,1.92,0,0,0,.56-.36,1.88,1.88,0,0,0,.38-.54,1.73,1.73,0,0,0,.16-.67V139a1.82,1.82,0,0,0-.13-.7,1.88,1.88,0,0,0-.38-.58,1.75,1.75,0,0,0-.57-.39,1.67,1.67,0,0,0-.71-.15,1.5,1.5,0,0,0-.67.15,1.55,1.55,0,0,0-.52.39,1.75,1.75,0,0,0-.33.58A2,2,0,0,0,92.29,139Z"/><path class="cls-1" d="M105.3,141.7a3.75,3.75,0,0,1-1.13.72,3.27,3.27,0,0,1-1.32.26,3.81,3.81,0,0,1-1.47-.28,3.72,3.72,0,0,1-1.22-.79A3.66,3.66,0,0,1,99,138.94a3.54,3.54,0,0,1,.13-1,3.66,3.66,0,0,1,.34-.87,3.63,3.63,0,0,1,1.27-1.35,3.94,3.94,0,0,1,.86-.38,3.67,3.67,0,0,1,1.9,0,4.05,4.05,0,0,1,.83.35,4.29,4.29,0,0,1,.72.55,3.4,3.4,0,0,1,.55.7,3,3,0,0,1,.36.8,3,3,0,0,1,.13.89c0,.19,0,.36,0,.48a.45.45,0,0,1-.09.3.44.44,0,0,1-.26.15,2.46,2.46,0,0,1-.54,0h-4.09a1.24,1.24,0,0,0,.23.61,1.15,1.15,0,0,0,.4.39,1.46,1.46,0,0,0,.48.21,2.1,2.1,0,0,0,.48.06,2,2,0,0,0,.42,0l.42-.11a2.56,2.56,0,0,0,.37-.17,1.18,1.18,0,0,0,.27-.2l.16-.11a.32.32,0,0,1,.14,0,.26.26,0,0,1,.15.05,1,1,0,0,1,.17.15l.6.68a.38.38,0,0,1,.08.13.5.5,0,0,1,0,.12.32.32,0,0,1-.06.2A1,1,0,0,1,105.3,141.7ZM102.56,137a1.11,1.11,0,0,0-.43.09,1.8,1.8,0,0,0-.71.57,2,2,0,0,0-.24.38h2.91a4.1,4.1,0,0,0-.26-.41,2,2,0,0,0-.32-.33,1.34,1.34,0,0,0-.41-.22A1.71,1.71,0,0,0,102.56,137Z"/><path class="cls-1" d="M110.86,133.64a.54.54,0,0,1,.09-.31.37.37,0,0,1,.31-.12h1.4l.12,0a.31.31,0,0,1,.11.09.38.38,0,0,1,.09.13.39.39,0,0,1,0,.18v8.49a.43.43,0,0,1-.12.33.48.48,0,0,1-.32.11h-1.32a.4.4,0,0,1-.31-.11.52.52,0,0,1-.09-.33Z"/><path class="cls-1" d="M121.81,142.15a.57.57,0,0,1,0,.18.28.28,0,0,1-.12.14.29.29,0,0,1-.14.08l-.15,0h-1.12a.47.47,0,0,1-.19,0,.27.27,0,0,1-.12-.09.47.47,0,0,1-.08-.14l-.07-.18-.07-.25a3.63,3.63,0,0,1-.35.3,2.58,2.58,0,0,1-.43.26,2.82,2.82,0,0,1-.51.19,2,2,0,0,1-.56.07,3.64,3.64,0,0,1-1-.13,3.81,3.81,0,0,1-.88-.37,3.66,3.66,0,0,1-1.33-1.34,3.74,3.74,0,0,1-.5-1.89,3.57,3.57,0,0,1,.29-1.47,3.45,3.45,0,0,1,.79-1.18,3.51,3.51,0,0,1,1.17-.79,3.54,3.54,0,0,1,1.45-.29,2.3,2.3,0,0,1,.66.08,2.49,2.49,0,0,1,.56.21,1.87,1.87,0,0,1,.45.33,2.3,2.3,0,0,1,.36.41l.17-.52c0-.09.07-.17.09-.22a.58.58,0,0,1,.08-.14.28.28,0,0,1,.11,0l.17,0h.85l.15,0a.29.29,0,0,1,.14.08.39.39,0,0,1,.12.14.57.57,0,0,1,0,.18Zm-5.6-3.18a2,2,0,0,0,.12.7,1.73,1.73,0,0,0,.33.56,1.62,1.62,0,0,0,.52.38,1.69,1.69,0,0,0,.68.14,1.78,1.78,0,0,0,.7-.14,1.73,1.73,0,0,0,.57-.38,1.68,1.68,0,0,0,.38-.56,1.82,1.82,0,0,0,0-1.4,1.88,1.88,0,0,0-.38-.58,1.75,1.75,0,0,0-.57-.39,1.63,1.63,0,0,0-.7-.15,1.54,1.54,0,0,0-.68.15,1.65,1.65,0,0,0-.52.39,1.94,1.94,0,0,0-.33.58A2,2,0,0,0,116.21,139Z"/><path class="cls-1" d="M133.41,134.74a.4.4,0,0,1,.14.15.25.25,0,0,1,0,.22l-1,1.36a.19.19,0,0,1-.13.11.21.21,0,0,1-.17-.05,2.28,2.28,0,0,0-.62-.32,2.07,2.07,0,0,0-.71-.11,2.15,2.15,0,0,0-.85.17,2,2,0,0,0-.68.49,2.07,2.07,0,0,0-.44.71,2.33,2.33,0,0,0-.16.88,2.28,2.28,0,0,0,.16.87,2.09,2.09,0,0,0,1.12,1.19,2,2,0,0,0,.85.18,2.18,2.18,0,0,0,.72-.12,2.3,2.3,0,0,0,.62-.33.25.25,0,0,1,.17,0,.28.28,0,0,1,.14.1l1,1.4a.27.27,0,0,1,0,.21.34.34,0,0,1-.15.14,4.38,4.38,0,0,1-1.15.56,4.26,4.26,0,0,1-1.3.19,4.37,4.37,0,0,1-1.15-.15,4.17,4.17,0,0,1-1-.44,4.45,4.45,0,0,1-1.56-1.55,4.15,4.15,0,0,1-.43-1,4,4,0,0,1-.16-1.15,4.06,4.06,0,0,1,.16-1.16,4.31,4.31,0,0,1,.43-1,4.49,4.49,0,0,1,.68-.88,4.41,4.41,0,0,1,.88-.68,4.58,4.58,0,0,1,1-.44A4.37,4.37,0,0,1,131,134a4.15,4.15,0,0,1,1.29.2A4.57,4.57,0,0,1,133.41,134.74Z"/><path class="cls-1" d="M134.52,139a3.88,3.88,0,0,1,.51-1.9,3.58,3.58,0,0,1,.58-.75,3.77,3.77,0,0,1,.75-.58,4,4,0,0,1,.9-.37,3.71,3.71,0,0,1,1-.13,3.59,3.59,0,0,1,1.46.29,3.65,3.65,0,0,1,1.18.79A3.78,3.78,0,0,1,142,139a3.88,3.88,0,0,1-.51,1.89,3.59,3.59,0,0,1-1.34,1.34,3.81,3.81,0,0,1-.88.37,3.66,3.66,0,0,1-1,.13,3.71,3.71,0,0,1-1-.13,4,4,0,0,1-.9-.37,4.18,4.18,0,0,1-.75-.58,3.92,3.92,0,0,1-.58-.76,3.88,3.88,0,0,1-.51-1.89Zm2.08,0a2.28,2.28,0,0,0,.11.7,1.73,1.73,0,0,0,.33.56,1.62,1.62,0,0,0,.52.38,1.67,1.67,0,0,0,.69.14,1.56,1.56,0,0,0,.66-.14,1.48,1.48,0,0,0,.51-.38,1.71,1.71,0,0,0,.32-.56,2.28,2.28,0,0,0,0-1.4,1.92,1.92,0,0,0-.32-.58,1.51,1.51,0,0,0-.51-.39,1.43,1.43,0,0,0-.66-.15,1.52,1.52,0,0,0-.69.15,1.65,1.65,0,0,0-.52.39,1.94,1.94,0,0,0-.33.58A2.28,2.28,0,0,0,136.6,139Z"/><path class="cls-1" d="M143.12,135.77a.41.41,0,0,1,0-.19.41.41,0,0,1,.1-.13.35.35,0,0,1,.15-.07.45.45,0,0,1,.16,0h.86a.32.32,0,0,1,.23.09.85.85,0,0,1,.14.21,2.49,2.49,0,0,1,.11.29,2.81,2.81,0,0,0,.1.31l.34-.37a2.17,2.17,0,0,1,.36-.32,1.37,1.37,0,0,1,.43-.23,1.42,1.42,0,0,1,.52-.09,3,3,0,0,1,.55,0,2.44,2.44,0,0,1,.46.14,2.92,2.92,0,0,1,.43.22l.46.32a.4.4,0,0,1,.24.33.57.57,0,0,1-.09.29l-.52.89a.47.47,0,0,1-.38.22.56.56,0,0,1-.26-.07,1.93,1.93,0,0,0-.49-.35,1.34,1.34,0,0,0-.58-.12.94.94,0,0,0-.39.07,1.11,1.11,0,0,0-.3.17,2.23,2.23,0,0,0-.26.27q-.12.17-.24.36v4.11a.47.47,0,0,1-.1.33.49.49,0,0,1-.35.11h-1.28a.39.39,0,0,1-.44-.44Z"/><path class="cls-1" d="M149.66,135.77a.41.41,0,0,1,0-.19.35.35,0,0,1,.25-.2.45.45,0,0,1,.16,0H151a.32.32,0,0,1,.23.09.85.85,0,0,1,.14.21,2.49,2.49,0,0,1,.11.29,1.63,1.63,0,0,0,.11.31l.33-.37a3.45,3.45,0,0,1,.36-.32,1.37,1.37,0,0,1,.43-.23,1.42,1.42,0,0,1,.52-.09,3,3,0,0,1,.55,0,2.24,2.24,0,0,1,.46.14,2.92,2.92,0,0,1,.43.22l.46.32a.41.41,0,0,1,.25.33.59.59,0,0,1-.1.29l-.52.89a.47.47,0,0,1-.38.22.53.53,0,0,1-.25-.07,2.17,2.17,0,0,0-.5-.35,1.34,1.34,0,0,0-.58-.12.94.94,0,0,0-.39.07,1.11,1.11,0,0,0-.3.17,2.23,2.23,0,0,0-.26.27q-.12.17-.24.36v4.11a.47.47,0,0,1-.1.33.49.49,0,0,1-.35.11H150.1a.39.39,0,0,1-.44-.44Z"/><path class="cls-1" d="M155.81,139a3.74,3.74,0,0,1,.5-1.9,3.94,3.94,0,0,1,.58-.75,3.56,3.56,0,0,1,.76-.58,3.74,3.74,0,0,1,1.89-.5,3.59,3.59,0,0,1,1.46.29,3.65,3.65,0,0,1,1.18.79,3.78,3.78,0,0,1,1.09,2.65,3.88,3.88,0,0,1-.51,1.89,3.92,3.92,0,0,1-.58.76,4.18,4.18,0,0,1-.75.58,4.08,4.08,0,0,1-.89.37,3.66,3.66,0,0,1-1,.13,3.74,3.74,0,0,1-1.89-.5,3.92,3.92,0,0,1-.76-.58,4.36,4.36,0,0,1-.58-.76,3.74,3.74,0,0,1-.5-1.89Zm2.07,0a2,2,0,0,0,.12.7,1.44,1.44,0,0,0,.33.56,1.48,1.48,0,0,0,.51.38,1.7,1.7,0,0,0,.69.14,1.64,1.64,0,0,0,.67-.14,1.59,1.59,0,0,0,.82-.94,2.28,2.28,0,0,0,0-1.4,1.73,1.73,0,0,0-.32-.58,1.58,1.58,0,0,0-.5-.39,1.5,1.5,0,0,0-.67-.15,1.55,1.55,0,0,0-.69.15,1.51,1.51,0,0,0-.51.39,1.59,1.59,0,0,0-.33.58A2,2,0,0,0,157.88,139Z"/><path class="cls-1" d="M165.48,140.32a1.35,1.35,0,0,0,.33.26,2.15,2.15,0,0,0,.34.17,1.68,1.68,0,0,0,.29.1l.17,0h.28l.32-.05a.87.87,0,0,0,.27-.14.38.38,0,0,0,.11-.28.39.39,0,0,0-.07-.25.57.57,0,0,0-.18-.16,1.6,1.6,0,0,0-.29-.11l-.39-.12a5.33,5.33,0,0,1-1.13-.44,2.72,2.72,0,0,1-.7-.57,2,2,0,0,1-.36-.68,2.76,2.76,0,0,1-.1-.77,1.9,1.9,0,0,1,.19-.86,1.78,1.78,0,0,1,.53-.66,2.83,2.83,0,0,1,.83-.43,3.89,3.89,0,0,1,1.75-.09,3.12,3.12,0,0,1,.59.19,3.57,3.57,0,0,1,.56.33,3.9,3.9,0,0,1,.53.48.33.33,0,0,1,.1.21.31.31,0,0,1-.13.22l-.42.36q-.19.16-.42.39a.28.28,0,0,1-.13.07.28.28,0,0,1-.13,0,.67.67,0,0,1-.12-.06l-.11-.1a1,1,0,0,0-.45-.3,1.69,1.69,0,0,0-.48-.07.93.93,0,0,0-.44.09.3.3,0,0,0-.15.3.28.28,0,0,0,.11.23.68.68,0,0,0,.24.13,2.8,2.8,0,0,0,.31.09l.3.07c.34.11.65.23.93.35a2.78,2.78,0,0,1,.74.48,2,2,0,0,1,.49.67,2.29,2.29,0,0,1,.17,1,2.13,2.13,0,0,1-.84,1.75,2.89,2.89,0,0,1-.93.46,4.26,4.26,0,0,1-1.15.16,3.51,3.51,0,0,1-.72-.07,3.31,3.31,0,0,1-.7-.2,2.76,2.76,0,0,1-.65-.36,2.3,2.3,0,0,1-.55-.53.56.56,0,0,1-.09-.17.47.47,0,0,1,0-.17.33.33,0,0,1,0-.15.41.41,0,0,1,.1-.13l.74-.73a.25.25,0,0,1,.24-.08A.84.84,0,0,1,165.48,140.32Z"/><path class="cls-1" d="M171,132.92a.46.46,0,0,1,.11-.34.4.4,0,0,1,.31-.1h1.32a.46.46,0,0,1,.32.1.43.43,0,0,1,.13.34V134a.43.43,0,0,1,0,.14.8.8,0,0,1-.08.16.53.53,0,0,1-.14.12.41.41,0,0,1-.19.05h-1.32c-.28,0-.42-.16-.42-.47Zm0,2.87a.49.49,0,0,1,.11-.31.35.35,0,0,1,.31-.13h1.31l.14,0a.38.38,0,0,1,.15.09.81.81,0,0,1,.12.14.41.41,0,0,1,0,.18v6.34a.43.43,0,0,1-.12.33.51.51,0,0,1-.34.11h-1.31c-.28,0-.42-.15-.42-.44Z"/><path class="cls-1" d="M174.43,139a3.88,3.88,0,0,1,.51-1.9,3.66,3.66,0,0,1,1.34-1.33,3.74,3.74,0,0,1,1.89-.5,3.59,3.59,0,0,1,1.46.29,3.65,3.65,0,0,1,1.18.79A3.78,3.78,0,0,1,181.9,139a3.88,3.88,0,0,1-.51,1.89,3.92,3.92,0,0,1-.58.76,4.18,4.18,0,0,1-.75.58,4.08,4.08,0,0,1-.89.37,3.66,3.66,0,0,1-1,.13,3.74,3.74,0,0,1-1.89-.5,3.59,3.59,0,0,1-1.34-1.34,3.88,3.88,0,0,1-.51-1.89Zm2.08,0a2,2,0,0,0,.12.7,1.55,1.55,0,0,0,.32.56,1.62,1.62,0,0,0,.52.38,1.67,1.67,0,0,0,.69.14,1.56,1.56,0,0,0,.66-.14,1.48,1.48,0,0,0,.51-.38,1.71,1.71,0,0,0,.32-.56,2.28,2.28,0,0,0,0-1.4,1.92,1.92,0,0,0-.32-.58,1.51,1.51,0,0,0-.51-.39,1.43,1.43,0,0,0-.66-.15,1.52,1.52,0,0,0-.69.15,1.65,1.65,0,0,0-.52.39,1.73,1.73,0,0,0-.32.58A2,2,0,0,0,176.51,139Zm1.24-5.89a.28.28,0,0,1,.11-.19.41.41,0,0,1,.19,0h1.46a.23.23,0,0,1,.13,0,.24.24,0,0,1,.06.09.24.24,0,0,1,0,.12.56.56,0,0,1,0,.12l-.55,1.23a.7.7,0,0,1-.14.18.29.29,0,0,1-.17,0h-1.25a.12.12,0,0,1-.11,0,.2.2,0,0,1,0-.11.71.71,0,0,1,0-.14l0-.12Z"/><path class="cls-1" d="M183.3,135.45a.35.35,0,0,1,.16-.08h1a.48.48,0,0,1,.18,0,.4.4,0,0,1,.12.1.39.39,0,0,1,.08.14l.06.17.12.5a1.26,1.26,0,0,1,.28-.36,2.21,2.21,0,0,1,.47-.35,3.27,3.27,0,0,1,.65-.25,3.47,3.47,0,0,1,.82-.1,2.67,2.67,0,0,1,1.16.25,2.62,2.62,0,0,1,.86.68,3.18,3.18,0,0,1,.55,1,4.06,4.06,0,0,1,.18,1.23v3.72a.52.52,0,0,1-.09.33.41.41,0,0,1-.3.11H188.3a.54.54,0,0,1-.34-.08.45.45,0,0,1-.09-.32v-3.7a1.08,1.08,0,0,0-.11-.47,1.53,1.53,0,0,0-.29-.38,1.44,1.44,0,0,0-.42-.27,1.28,1.28,0,0,0-.47-.1,1.07,1.07,0,0,0-.41.1,1.28,1.28,0,0,0-.4.25,1.63,1.63,0,0,0-.3.38,1.28,1.28,0,0,0-.14.47v3.7a.63.63,0,0,1,0,.19.35.35,0,0,1-.11.15l-.14.06-.15,0h-1.29a.45.45,0,0,1-.35-.12.48.48,0,0,1-.11-.32v-6.35a.42.42,0,0,1,0-.2.35.35,0,0,1,.13-.14Z"/><path class="cls-2" d="M101.34,99.08l-2.63,1.69A53.88,53.88,0,1,1,72.18,0,53.55,53.55,0,0,1,99.12,7.21l2.22,1.45c-3.56,3.95-11.67,13.83-11.67,13.83a35.91,35.91,0,1,0,0,62.78Z"/><path class="cls-1" d="M124,22.24a35.72,35.72,0,0,1,17-4.3,36.28,36.28,0,0,1,17.63,4.67l11.5-13.88C160.34,3,150.83,0,141,0a53.53,53.53,0,0,0-28.73,8.3C118.32,15.2,119.44,16.61,124,22.24Z"/><path class="cls-1" d="M158.59,85.08a36.52,36.52,0,0,1-17.67,4.65,35.75,35.75,0,0,1-17-4.29c-3.77,4.73-8,9.81-11.7,13.91a53.79,53.79,0,0,0,55.15,1.37c.25-.14,2.52-1.51,2.78-1.72Z"/><path class="cls-3" d="M105.06,53.87a35.67,35.67,0,0,1,2.48-13.11l-16.67-6.6a53.79,53.79,0,0,0,15.69,61.09,54.23,54.23,0,0,0,11.7-13.59A35.77,35.77,0,0,1,105.06,53.87Z"/><path class="cls-3" d="M110.22,35.36a36,36,0,0,1,8-9.26,53.9,53.9,0,0,0-11.7-13.6A54.11,54.11,0,0,0,95,25.88l-.11.19Z"/></g></g></svg>